<svg width="36" height="34" viewBox="0 0 36 34" fill="none" xmlns="http://www.w3.org/2000/svg">
<path fill-rule="evenodd" clip-rule="evenodd" d="M24.5455 12.3639C24.5455 14.0035 23.8559 15.5758 22.6284 16.7352C21.4009 17.8945 19.736 18.5458 18 18.5458C16.2641 18.5458 14.5992 17.8945 13.3717 16.7352C12.1442 15.5758 11.4546 14.0035 11.4546 12.3639C11.4546 10.7244 12.1442 9.15206 13.3717 7.99274C14.5992 6.83343 16.2641 6.18213 18 6.18213C19.736 6.18213 21.4009 6.83343 22.6284 7.99274C23.8559 9.15206 24.5455 10.7244 24.5455 12.3639ZM21.2728 12.3639C21.2728 13.1837 20.928 13.9699 20.3142 14.5496C19.7005 15.1292 18.868 15.4549 18 15.4549C17.1321 15.4549 16.2996 15.1292 15.6859 14.5496C15.0721 13.9699 14.7273 13.1837 14.7273 12.3639C14.7273 11.5442 15.0721 10.758 15.6859 10.1783C16.2996 9.59869 17.1321 9.27304 18 9.27304C18.868 9.27304 19.7005 9.59869 20.3142 10.1783C20.928 10.758 21.2728 11.5442 21.2728 12.3639Z" fill="white"/>
<path fill-rule="evenodd" clip-rule="evenodd" d="M18 0C8.05909 0 0 7.61136 0 17C0 26.3886 8.05909 34 18 34C27.9409 34 36 26.3886 36 17C36 7.61136 27.9409 0 18 0ZM3.27273 17C3.27273 20.23 4.43945 23.2035 6.39491 25.5649C7.7682 23.8617 9.53984 22.4813 11.5714 21.5318C13.603 20.5822 15.8396 20.0891 18.1064 20.0909C20.3438 20.0889 22.5522 20.5693 24.5633 21.4954C26.5745 22.4215 28.3352 23.769 29.7115 25.4351C31.1293 23.6788 32.0839 21.629 32.4964 19.4551C32.9088 17.2812 32.7673 15.0458 32.0834 12.9339C31.3995 10.8219 30.1929 8.89416 28.5635 7.31006C26.9341 5.72595 24.9288 4.53106 22.7134 3.82424C20.4979 3.11743 18.1361 2.91901 15.8234 3.24541C13.5107 3.57181 11.3135 4.41365 9.41362 5.70126C7.51377 6.98888 5.96587 8.68525 4.89801 10.65C3.83015 12.6148 3.27302 14.7915 3.27273 17ZM18 30.9091C14.6192 30.9139 11.3404 29.8154 8.71855 27.7996C9.77389 26.3728 11.1786 25.2078 12.813 24.4038C14.4475 23.5998 16.2635 23.1806 18.1064 23.1818C19.9263 23.1804 21.7203 23.5892 23.3393 24.374C24.9584 25.1589 26.3559 26.2972 27.4156 27.6945C24.7734 29.7758 21.4406 30.9136 18 30.9091Z" fill="white"/>
</svg>
